<?xml version="1.0" encoding="UTF-8"?>
<svg xmlns="http://www.w3.org/2000/svg" viewBox="130 290 370 220">
  <defs>
    <style>
      .st0 { fill: #4fb4e5; }
    </style>
  </defs>
  <path class="st0" d="M295.28,390.92c-1.4,1.13-2.35,2.01-3.51,3.09-1.17,1.09-3.3,3.08-5.79,5.95-1.3,1.5-2.85,3.41-4.47,5.7-.89,1.26-1.82,2.67-2.3,3.4-.12.18-.2.3-.25.38-.24.37-.91,1.41-1.52,2.47-.41.71-.96,1.73-1.58,3.04h-14.05c-2.75,0-5.49,0-8.24-.01-2.57.02-5.16.02-7.76,0-.56,0-1.12,0-1.68-.01-3.41.01-6.21.01-8.16.01-.64,0-2.49,0-8.63-.01-1.61,0-5.81-.01-7.39-.02,0-1.47.01-2.94.02-4.42,0-1.31-.01-2.61-.02-3.92,0-.86.02-1.71.02-2.57.02-7.43.01-10.4,0-11.38,0-.18-.01-.87-.01-1.82,0-1.11.01-.97,0-1.72,0-.69-.02-1.6,0-2.16,0-.2.01-.44.01-.44,0-.31.02-.56.02-.75.05,0,7.84,0,7.89,0,4.5,0,69.29,0,73.84,0-.67.59-1.24,1.06-1.61,1.37-1.79,1.47-2.68,2.05-4.86,3.8Z"/>
  <g>
    <path class="st0" d="M477.45,381.38c-3.3,5.9-11.35,18.43-25.82,25.92-8.22,4.25-16.6,5.89-17.9,6.13-4.85.91-8.85,1.09-15.03,1.36-4.57.2-6.95.14-15.71.09-6-.03,1.15.03-19.3-.04-14.15-.05-21.22-.07-22.69-.1-5.56-.1-9.05-.22-15.06-.11-9.93.18-12.76.76-15.38,1.66-1.31.45-6.17,2.21-10.95,6.43-6.11,5.39-8.29,11.44-10.56,16.5.63-1.37,1.31-2.88,1.28-2.9-.05-.02-2.05,4.47-4.8,9.55-1.79,3.32-4.06,7.48-7.56,12.26-.36.49-3.68,4.99-7.79,9.16-10.44,10.59-23.11,16.16-27.82,18.06-12.74,5.13-23.37,5.89-30.63,6.36-10.75.7-39.1,2.14-66.89-15.26-9.55-5.97-16.1-12.38-19.43-15.91-5.93-6.28-13.98-16.45-19.76-30.77-2.08-5.14-3.23-9.27-3.72-11.08-.83-3.12-4.47-17.48-2.28-36.9,1.13-10.04,3.34-17.22,3.83-18.78,3.37-10.74,7.92-18.36,10.06-21.71.91-1.43,4.83-7.47,11.21-14.21,1.07-1.13,3.28-3.41,6.28-6.09.36-.32,5.6-4.97,11.41-8.85,10.99-7.35,23.31-11.48,27.58-12.84,0,0,0,0,0,0,3.48-1.16,20.8-6.2,44.07-4.2,7.45.64,12.92,1.8,14.96,2.25,3.35.74,10.56,2.49,18.77,5.92,4.41,1.85,7.5,3.49,8.31,3.94,1.67.94,3.86,2.22,6.39,3.81,2.29,1.44,4.21,2.65,6.71,4.49,2.06,1.52,4.56,3.49,7.27,5.96,1.2,1.1,2.2,2.07,2.95,2.82-2.88,2.78-5.77,5.6-8.67,8.46-2.66,2.62-5.28,5.23-7.87,7.83-1.97,2.02-3.93,4.03-5.9,6.05-1.86-1.78-4.17-3.83-6.95-5.97-1.08-.83-3.54-2.68-6.9-4.79-2.39-1.5-5.39-3.22-8.96-4.93h0c-.06-.03-13.42-6.51-33.2-6.51h0c-3.98-.06-8.46.23-13.3,1.16-17.63,3.39-29.7,13.32-35.79,19.27-5.85,6.44-13.24,16.66-16.58,30.67-.66,2.78-1.11,5.46-1.38,8-.27,2.61-.51,5.95-.51,9.82,0,2.13.02,5.16.47,9.1.72,6.29,2.09,10.87,2.38,11.82,0,0,1.54,5.06,4.09,10.07,8.72,17.19,24.43,27.18,24.43,27.18,2.29,1.46,11.33,7.01,24.54,9.54,11.26,2.16,20.14,1.09,24.6.52,4.34-.56,9.7-1.28,16.28-3.98,6.9-2.83,11.61-6.37,13.66-8.02,2.58-2.08,6.59-5.7,10.25-10.88,1.66-2.36,3.2-4.96,5.29-8.5,1.72-2.91,2.44-4.27,3.65-6.42,3.53-6.24,5.95-10.52,9.63-15.22,1.91-2.44,4.65-5.9,9.11-9.58,1.28-1.06,4.65-3.74,9.55-6.36,4.74-2.53,8.72-3.82,10.35-4.32,4.13-1.26,7.38-1.72,9.66-2.04,4.49-.62,8.05-.68,11.01-.73,3.79-.06,7.7.07,7.7.07h0c.07,0,.15,0,.15,0,.1,0,29.57.22,39.49.27,3.09.02,7.64.03,13.21.02,4.13,0,8.26-.02,12.39-.02,3.25.11,5.97-.13,7.98-.41,2.06-.29,4.01-.57,6.47-1.46,2.08-.76,3.63-1.63,4.52-2.14.19-.11,2.25-1.29,4.03-2.69,2.72-2.15,7.35-6.83,9.44-14.07.28-.96.88-3.24,1.03-6.24.12-2.31.44-10.99-5.65-18.97,0,0-5.26-6.89-13.48-9.58-2.85-.93-6.2-1.44-6.2-1.44-2.31-.35-4.22-.44-6.99-.56-2.8-.12-4.9-.12-5.36-.12-5.9,0-11.8-.07-17.69-.03-3.71.02-9.18.04-16,.03-7.56.01-15.13.03-22.69.04-.08,8.46-.11,12.3-.12,14.09,0,.03,0,.41,0,.43,0,1.07-.02,2.5-.1,12.97-.05,6.77-.07,10.19,0,11.87.03.58.1,2.62.1,5.38,0,1.29-.02,2.33-.03,3-1.56-.01-3.79-.03-6.49-.03-3.72,0-5.63-.01-7.86.03-1.69.03-4.38.11-7.6.33-1.17.08-2.14.16-3.28.3-1.27.15-2.64.31-4.32.68-1.18.26-2.75.67-4.56,1.35v-30.85c0-3.67,0-5.9,0-6.3,0-.02,0-.26,0-.28,0-1.14,0-1.97,0-2.14,0-1.17,0-1.74-.01-3.09,0-1.28,0-1.43,0-3.31,0-3.56-.02-4.74,0-6.77,0-.31,0-1.11,0-2.19,0-.55,0-.53,0-1.03,0-.98,0-1.3,0-2.26,0-.8,0-.64,0-1.29,0-1.11,0-1.46,0-2.45,0-.51,0-.58,0-1.2,0-1.43,0-2.07,0-3.66,0-.43,0-1.12,0-2.49,0-4.51-.02-5.91,0-8.54,0-.54,0-.99,0-1.26,4.39.04,10.78.08,18.48,0,33.59-.33,54.08-.85,84.15-.06,3.38.09,10.05.31,18.25,2.86,5.32,1.66,21.72,7.03,32.57,23.47,2.39,3.63,7.37,12.12,8.74,23.93,1.06,9.15-.49,16.43-1.23,19.75-1.11,4.98-2.64,9.03-3.92,11.94Z"/>
    <path class="st0" d="M354.51,487.98c-7.21-.11-14.49-.17-21.84-.18-4.19,0-8.36,0-12.5.03,0-1.77.01-4.41.02-7.61,0-6.41-.02-11.59-.03-15.74-.03-6.7-.04-6.41-.04-9.15,0-5.64.05-10.24.1-13.27.41-1.93,1.34-5.12,3.65-8.42,2.21-3.16,4.63-4.9,5.2-5.3,3.97-2.78,7.93-3.39,9.79-3.65,2.52-.36,2.93-.02,13.19.01,1.06,0,1.95,0,2.54,0v28.79c.02,4.34.04,8.67.07,13.01-.04,7.16-.09,14.32-.13,21.48Z"/>
  </g>
</svg>
